<?xml version="1.0" encoding="UTF-8"?>
<svg id="Layer_1" data-name="Layer 1" xmlns="http://www.w3.org/2000/svg" version="1.1" viewBox="0 0 792 612">
  <defs>
    <style>
      .cls-1 {
        fill: none;
        stroke: #000;
        stroke-linecap: round;
        stroke-linejoin: bevel;
        stroke-width: 1.2px;
      }
    </style>
  </defs>
  <polyline class="cls-1" points="43.4 29.6 43.2 29.6 43 29.7 42.8 29.7 42.5 29.7 42.3 29.7 42.1 29.7 41.9 29.8 41.7 29.8 41.5 29.9 41.2 29.9 41 30 40.8 30 40.6 30.1 40.4 30.2 40.2 30.2 40 30.3 39.8 30.4 39.6 30.5 39.4 30.6 39.2 30.7 39 30.8 38.8 30.9 38.6 31 38.4 31.2 38.2 31.3 38.1 31.4 37.9 31.5 37.7 31.7 37.5 31.8 37.4 32 37.2 32.1 37.1 32.3 36.9 32.4 36.8 32.6 36.6 32.8 36.5 32.9 36.3 33.1 36.2 33.3 36.1 33.5 35.9 33.6 35.8 33.8 35.7 34 35.6 34.2 35.5 34.4 35.4 34.6 35.3 34.8 35.2 35 35.1 35.2 35 35.4 35 35.6 34.9 35.8 34.8 36 34.8 36.2 34.7 36.5 34.6 36.7 34.6 36.9 34.6 37.1 34.5 37.3 34.5 37.5 34.5 37.8 34.5 38 34.4 38.2 34.4 38.4 34.4 38.6" vector-effect="none"/>
  <polyline class="cls-1" points="178.4 38.6 178.4 38.4 178.4 38.2 178.4 38 178.4 37.8 178.4 37.5 178.3 37.3 178.3 37.1 178.3 36.9 178.2 36.7 178.2 36.5 178.1 36.2 178 36 178 35.8 177.9 35.6 177.8 35.4 177.7 35.2 177.7 35 177.6 34.8 177.5 34.6 177.4 34.4 177.3 34.2 177.1 34 177 33.8 176.9 33.6 176.8 33.5 176.7 33.3 176.5 33.1 176.4 32.9 176.2 32.8 176.1 32.6 175.9 32.4 175.8 32.3 175.6 32.1 175.5 32 175.3 31.8 175.1 31.7 175 31.5 174.8 31.4 174.6 31.3 174.4 31.2 174.2 31 174.1 30.9 173.9 30.8 173.7 30.7 173.5 30.6 173.3 30.5 173.1 30.4 172.9 30.3 172.7 30.2 172.5 30.2 172.2 30.1 172 30 171.8 30 171.6 29.9 171.4 29.9 171.2 29.8 171 29.8 170.7 29.7 170.5 29.7 170.3 29.7 170.1 29.7 169.9 29.7 169.6 29.6 169.4 29.6" vector-effect="none"/>
  <polyline class="cls-1" points="169.4 155.6 169.6 155.6 169.9 155.6 170.1 155.6 170.3 155.6 170.5 155.6 170.7 155.5 171 155.5 171.2 155.5 171.4 155.4 171.6 155.4 171.8 155.3 172 155.3 172.2 155.2 172.5 155.1 172.7 155 172.9 155 173.1 154.9 173.3 154.8 173.5 154.7 173.7 154.6 173.9 154.5 174.1 154.4 174.2 154.2 174.4 154.1 174.6 154 174.8 153.9 175 153.7 175.1 153.6 175.3 153.5 175.5 153.3 175.6 153.2 175.8 153 175.9 152.9 176.1 152.7 176.2 152.5 176.4 152.4 176.5 152.2 176.7 152 176.8 151.8 176.9 151.6 177 151.5 177.1 151.3 177.3 151.1 177.4 150.9 177.5 150.7 177.6 150.5 177.7 150.3 177.7 150.1 177.8 149.9 177.9 149.7 178 149.5 178 149.3 178.1 149 178.2 148.8 178.2 148.6 178.3 148.4 178.3 148.2 178.3 148 178.4 147.7 178.4 147.5 178.4 147.3 178.4 147.1 178.4 146.9 178.4 146.6" vector-effect="none"/>
  <polyline class="cls-1" points="34.4 146.6 34.4 146.9 34.4 147.1 34.5 147.3 34.5 147.5 34.5 147.7 34.5 148 34.6 148.2 34.6 148.4 34.6 148.6 34.7 148.8 34.8 149 34.8 149.3 34.9 149.5 35 149.7 35 149.9 35.1 150.1 35.2 150.3 35.3 150.5 35.4 150.7 35.5 150.9 35.6 151.1 35.7 151.3 35.8 151.5 35.9 151.6 36.1 151.8 36.2 152 36.3 152.2 36.5 152.4 36.6 152.5 36.8 152.7 36.9 152.9 37.1 153 37.2 153.2 37.4 153.3 37.5 153.5 37.7 153.6 37.9 153.7 38.1 153.9 38.2 154 38.4 154.1 38.6 154.2 38.8 154.4 39 154.5 39.2 154.6 39.4 154.7 39.6 154.8 39.8 154.9 40 155 40.2 155 40.4 155.1 40.6 155.2 40.8 155.3 41 155.3 41.2 155.4 41.5 155.4 41.7 155.5 41.9 155.5 42.1 155.5 42.3 155.6 42.5 155.6 42.8 155.6 43 155.6 43.2 155.6 43.4 155.6" vector-effect="none"/>
  <line class="cls-1" x1="76.9" y1="83.6" x2="133.4" y2="83.6" vector-effect="none"/>
  <line class="cls-1" x1="169.4" y1="155.6" x2="43.4" y2="155.6" vector-effect="none"/>
  <polyline class="cls-1" points="146.8 121.6 146.8 121.5 146.8 121.4 146.8 121.2 146.8 121.1 146.8 121 146.8 120.9 146.7 120.8 146.7 120.6 146.7 120.5 146.7 120.4 146.6 120.3 146.6 120.2 146.6 120.1 146.5 120 146.5 119.9 146.4 119.7 146.4 119.6 146.3 119.5 146.3 119.4 146.2 119.3 146.1 119.2 146.1 119.1 146 119 145.9 118.9 145.9 118.8 145.8 118.7 145.7 118.7 145.6 118.6 145.5 118.5 145.5 118.4 145.4 118.3 145.3 118.2 145.2 118.2 145.1 118.1 145 118 144.9 117.9 144.8 117.9 144.7 117.8 144.6 117.8 144.5 117.7 144.4 117.6 144.3 117.6 144.2 117.5 144.1 117.5 144 117.4 143.8 117.4 143.7 117.4 143.6 117.3 143.5 117.3 143.4 117.3 143.3 117.3 143.2 117.2 143 117.2 142.9 117.2 142.8 117.2 142.7 117.2 142.6 117.2 142.4 117.2 142.3 117.2 142.2 117.2 142.1 117.2 142 117.2 141.9 117.2 141.7 117.2 141.6 117.2 141.5 117.3 141.4 117.3 141.3 117.3 141.2 117.3 141 117.4 140.9 117.4 140.8 117.4 140.7 117.5 140.6 117.5 140.5 117.6 140.4 117.6 140.3 117.7 140.2 117.8 140.1 117.8 140 117.9 139.9 117.9 139.8 118 139.7 118.1 139.6 118.2 139.5 118.2 139.4 118.3 139.3 118.4 139.2 118.5 139.2 118.6 139.1 118.7 139 118.7 138.9 118.8 138.8 118.9 138.8 119 138.7 119.1 138.6 119.2 138.6 119.3 138.5 119.4 138.5 119.5 138.4 119.6 138.4 119.7 138.3 119.9 138.3 120 138.2 120.1 138.2 120.2 138.2 120.3 138.1 120.4 138.1 120.5 138.1 120.6 138 120.8 138 120.9 138 121 138 121.1 138 121.2 138 121.4 138 121.5 138 121.6 138 121.7 138 121.8 138 121.9 138 122.1 138 122.2 138 122.3 138 122.4 138.1 122.5 138.1 122.6 138.1 122.8 138.2 122.9 138.2 123 138.2 123.1 138.3 123.2 138.3 123.3 138.4 123.4 138.4 123.5 138.5 123.6 138.5 123.8 138.6 123.9 138.6 124 138.7 124.1 138.8 124.2 138.8 124.2 138.9 124.3 139 124.4 139.1 124.5 139.2 124.6 139.2 124.7 139.3 124.8 139.4 124.9 139.5 124.9 139.6 125 139.7 125.1 139.8 125.2 139.9 125.2 140 125.3 140.1 125.4 140.2 125.4 140.3 125.5 140.4 125.5 140.5 125.6 140.6 125.6 140.7 125.7 140.8 125.7 140.9 125.8 141 125.8 141.2 125.8 141.3 125.9 141.4 125.9 141.5 125.9 141.6 125.9 141.7 126 141.9 126 142 126 142.1 126 142.2 126 142.3 126 142.4 126 142.6 126 142.7 126 142.8 126 142.9 126 143 126 143.2 125.9 143.3 125.9 143.4 125.9 143.5 125.9 143.6 125.8 143.7 125.8 143.8 125.8 144 125.7 144.1 125.7 144.2 125.6 144.3 125.6 144.4 125.5 144.5 125.5 144.6 125.4 144.7 125.4 144.8 125.3 144.9 125.2 145 125.2 145.1 125.1 145.2 125 145.3 124.9 145.4 124.9 145.5 124.8 145.5 124.7 145.6 124.6 145.7 124.5 145.8 124.4 145.9 124.3 145.9 124.2 146 124.2 146.1 124.1 146.1 124 146.2 123.9 146.3 123.8 146.3 123.6 146.4 123.5 146.4 123.4 146.5 123.3 146.5 123.2 146.6 123.1 146.6 123 146.6 122.9 146.7 122.8 146.7 122.6 146.7 122.5 146.7 122.4 146.8 122.3 146.8 122.2 146.8 122.1 146.8 121.9 146.8 121.8 146.8 121.7 146.8 121.6" vector-effect="none"/>
  <polyline class="cls-1" points="73.2 63.8 73.2 63.7 73.2 63.6 73.2 63.5 73.2 63.4 73.2 63.3 73.2 63.1 73.2 63 73.1 62.9 73.1 62.8 73.1 62.7 73 62.6 73 62.4 73 62.3 72.9 62.2 72.9 62.1 72.8 62 72.8 61.9 72.7 61.8 72.7 61.7 72.6 61.6 72.5 61.5 72.5 61.4 72.4 61.3 72.3 61.2 72.3 61.1 72.2 61 72.1 60.9 72 60.8 72 60.7 71.9 60.7 71.8 60.6 71.7 60.5 71.6 60.4 71.5 60.3 71.4 60.3 71.3 60.2 71.2 60.1 71.1 60.1 71 60 70.9 60 70.8 59.9 70.7 59.8 70.6 59.8 70.5 59.7 70.4 59.7 70.3 59.7 70.2 59.6 70 59.6 69.9 59.6 69.8 59.5 69.7 59.5 69.6 59.5 69.5 59.5 69.3 59.4 69.2 59.4 69.1 59.4 69 59.4 68.9 59.4 68.7 59.4 68.6 59.4 68.5 59.4 68.4 59.4 68.3 59.4 68.2 59.5 68 59.5 67.9 59.5 67.8 59.5 67.7 59.6 67.6 59.6 67.5 59.6 67.3 59.7 67.2 59.7 67.1 59.7 67 59.8 66.9 59.8 66.8 59.9 66.7 60 66.6 60 66.5 60.1 66.4 60.1 66.3 60.2 66.2 60.3 66.1 60.3 66 60.4 65.9 60.5 65.8 60.6 65.7 60.7 65.7 60.7 65.6 60.8 65.5 60.9 65.4 61 65.3 61.1 65.3 61.2 65.2 61.3 65.1 61.4 65.1 61.5 65 61.6 64.9 61.7 64.9 61.8 64.8 61.9 64.8 62 64.7 62.1 64.7 62.2 64.6 62.3 64.6 62.4 64.6 62.6 64.5 62.7 64.5 62.8 64.5 62.9 64.5 63 64.4 63.1 64.4 63.3 64.4 63.4 64.4 63.5 64.4 63.6 64.4 63.7 64.4 63.8 64.4 64 64.4 64.1 64.4 64.2 64.4 64.3 64.4 64.4 64.4 64.6 64.5 64.7 64.5 64.8 64.5 64.9 64.5 65 64.6 65.1 64.6 65.2 64.6 65.4 64.7 65.5 64.7 65.6 64.8 65.7 64.8 65.8 64.9 65.9 64.9 66 65 66.1 65.1 66.2 65.1 66.3 65.2 66.4 65.3 66.5 65.3 66.6 65.4 66.7 65.5 66.8 65.6 66.9 65.7 67 65.7 67 65.8 67.1 65.9 67.2 66 67.3 66.1 67.3 66.2 67.4 66.3 67.5 66.4 67.6 66.5 67.6 66.6 67.7 66.7 67.7 66.8 67.8 66.9 67.8 67 67.9 67.1 67.9 67.2 68 67.3 68 67.5 68.1 67.6 68.1 67.7 68.1 67.8 68.2 67.9 68.2 68 68.2 68.2 68.2 68.3 68.2 68.4 68.3 68.5 68.3 68.6 68.3 68.7 68.3 68.9 68.3 69 68.3 69.1 68.3 69.2 68.3 69.3 68.2 69.5 68.2 69.6 68.2 69.7 68.2 69.8 68.2 69.9 68.1 70 68.1 70.2 68.1 70.3 68 70.4 68 70.5 67.9 70.6 67.9 70.7 67.8 70.8 67.8 70.9 67.7 71 67.7 71.1 67.6 71.2 67.6 71.3 67.5 71.4 67.4 71.5 67.3 71.6 67.3 71.7 67.2 71.8 67.1 71.9 67 72 67 72 66.9 72.1 66.8 72.2 66.7 72.3 66.6 72.3 66.5 72.4 66.4 72.5 66.3 72.5 66.2 72.6 66.1 72.7 66 72.7 65.9 72.8 65.8 72.8 65.7 72.9 65.6 72.9 65.5 73 65.4 73 65.2 73 65.1 73.1 65 73.1 64.9 73.1 64.8 73.2 64.7 73.2 64.6 73.2 64.4 73.2 64.3 73.2 64.2 73.2 64.1 73.2 64 73.2 63.8" vector-effect="none"/>
  <polyline class="cls-1" points="169.4 43.1 169.4 43 169.3 42.9 169.3 42.8 169.3 42.7 169.3 42.6 169.3 42.4 169.3 42.3 169.3 42.2 169.2 42.1 169.2 42 169.2 41.9 169.1 41.7 169.1 41.6 169 41.5 169 41.4 169 41.3 168.9 41.2 168.8 41.1 168.8 41 168.7 40.9 168.7 40.8 168.6 40.7 168.5 40.6 168.5 40.5 168.4 40.4 168.3 40.3 168.2 40.2 168.2 40.1 168.1 40 168 40 167.9 39.9 167.8 39.8 167.7 39.7 167.6 39.6 167.5 39.6 167.4 39.5 167.3 39.4 167.2 39.4 167.1 39.3 167 39.3 166.9 39.2 166.8 39.1 166.7 39.1 166.6 39 166.5 39 166.4 39 166.3 38.9 166.2 38.9 166 38.9 165.9 38.8 165.8 38.8 165.7 38.8 165.6 38.8 165.5 38.7 165.3 38.7 165.2 38.7 165.1 38.7 165 38.7 164.9 38.7 164.7 38.7 164.6 38.7 164.5 38.7 164.4 38.7 164.3 38.8 164.2 38.8 164 38.8 163.9 38.8 163.8 38.9 163.7 38.9 163.6 38.9 163.5 39 163.4 39 163.2 39 163.1 39.1 163 39.1 162.9 39.2 162.8 39.3 162.7 39.3 162.6 39.4 162.5 39.4 162.4 39.5 162.3 39.6 162.2 39.6 162.1 39.7 162 39.8 161.9 39.9 161.9 40 161.8 40 161.7 40.1 161.6 40.2 161.5 40.3 161.5 40.4 161.4 40.5 161.3 40.6 161.2 40.7 161.2 40.8 161.1 40.9 161.1 41 161 41.1 161 41.2 160.9 41.3 160.9 41.4 160.8 41.5 160.8 41.6 160.7 41.7 160.7 41.9 160.7 42 160.6 42.1 160.6 42.2 160.6 42.3 160.6 42.4 160.5 42.6 160.5 42.7 160.5 42.8 160.5 42.9 160.5 43 160.5 43.1 160.5 43.3 160.5 43.4 160.5 43.5 160.5 43.6 160.5 43.7 160.6 43.9 160.6 44 160.6 44.1 160.6 44.2 160.7 44.3 160.7 44.4 160.7 44.5 160.8 44.7 160.8 44.8 160.9 44.9 160.9 45 161 45.1 161 45.2 161.1 45.3 161.1 45.4 161.2 45.5 161.2 45.6 161.3 45.7 161.4 45.8 161.5 45.9 161.5 46 161.6 46.1 161.7 46.2 161.8 46.3 161.9 46.3 161.9 46.4 162 46.5 162.1 46.6 162.2 46.6 162.3 46.7 162.4 46.8 162.5 46.9 162.6 46.9 162.7 47 162.8 47 162.9 47.1 163 47.1 163.1 47.2 163.2 47.2 163.4 47.3 163.5 47.3 163.6 47.4 163.7 47.4 163.8 47.4 163.9 47.5 164 47.5 164.2 47.5 164.3 47.5 164.4 47.5 164.5 47.6 164.6 47.6 164.7 47.6 164.9 47.6 165 47.6 165.1 47.6 165.2 47.6 165.3 47.6 165.5 47.5 165.6 47.5 165.7 47.5 165.8 47.5 165.9 47.5 166 47.4 166.2 47.4 166.3 47.4 166.4 47.3 166.5 47.3 166.6 47.2 166.7 47.2 166.8 47.1 166.9 47.1 167 47 167.1 47 167.2 46.9 167.3 46.9 167.4 46.8 167.5 46.7 167.6 46.6 167.7 46.6 167.8 46.5 167.9 46.4 168 46.3 168.1 46.3 168.2 46.2 168.2 46.1 168.3 46 168.4 45.9 168.5 45.8 168.5 45.7 168.6 45.6 168.7 45.5 168.7 45.4 168.8 45.3 168.8 45.2 168.9 45.1 169 45 169 44.9 169 44.8 169.1 44.7 169.1 44.5 169.2 44.4 169.2 44.3 169.2 44.2 169.3 44.1 169.3 44 169.3 43.9 169.3 43.7 169.3 43.6 169.3 43.5 169.3 43.4 169.4 43.3 169.4 43.1" vector-effect="none"/>
  <polyline class="cls-1" points="52.4 142.1 52.4 142 52.3 141.9 52.3 141.8 52.3 141.7 52.3 141.6 52.3 141.4 52.3 141.3 52.3 141.2 52.2 141.1 52.2 141 52.2 140.9 52.1 140.7 52.1 140.6 52 140.5 52 140.4 52 140.3 51.9 140.2 51.8 140.1 51.8 140 51.7 139.9 51.7 139.8 51.6 139.7 51.5 139.6 51.5 139.5 51.4 139.4 51.3 139.3 51.2 139.2 51.2 139.1 51.1 139 51 139 50.9 138.9 50.8 138.8 50.7 138.7 50.6 138.6 50.5 138.6 50.4 138.5 50.3 138.4 50.2 138.4 50.1 138.3 50 138.3 49.9 138.2 49.8 138.1 49.7 138.1 49.6 138 49.5 138 49.4 138 49.3 137.9 49.2 137.9 49 137.9 48.9 137.8 48.8 137.8 48.7 137.8 48.6 137.8 48.5 137.7 48.3 137.7 48.2 137.7 48.1 137.7 48 137.7 47.9 137.7 47.7 137.7 47.6 137.7 47.5 137.7 47.4 137.7 47.3 137.8 47.2 137.8 47 137.8 46.9 137.8 46.8 137.9 46.7 137.9 46.6 137.9 46.5 138 46.4 138 46.2 138 46.1 138.1 46 138.1 45.9 138.2 45.8 138.3 45.7 138.3 45.6 138.4 45.5 138.4 45.4 138.5 45.3 138.6 45.2 138.6 45.1 138.7 45 138.8 44.9 138.9 44.9 139 44.8 139 44.7 139.1 44.6 139.2 44.5 139.3 44.5 139.4 44.4 139.5 44.3 139.6 44.2 139.7 44.2 139.8 44.1 139.9 44.1 140 44 140.1 44 140.2 43.9 140.3 43.9 140.4 43.8 140.5 43.8 140.6 43.7 140.7 43.7 140.9 43.7 141 43.6 141.1 43.6 141.2 43.6 141.3 43.6 141.4 43.5 141.6 43.5 141.7 43.5 141.8 43.5 141.9 43.5 142 43.5 142.1 43.5 142.3 43.5 142.4 43.5 142.5 43.5 142.6 43.5 142.7 43.6 142.9 43.6 143 43.6 143.1 43.6 143.2 43.7 143.3 43.7 143.4 43.7 143.5 43.8 143.7 43.8 143.8 43.9 143.9 43.9 144 44 144.1 44 144.2 44.1 144.3 44.1 144.4 44.2 144.5 44.2 144.6 44.3 144.7 44.4 144.8 44.5 144.9 44.5 145 44.6 145.1 44.7 145.2 44.8 145.3 44.9 145.3 44.9 145.4 45 145.5 45.1 145.6 45.2 145.6 45.3 145.7 45.4 145.8 45.5 145.9 45.6 145.9 45.7 146 45.8 146 45.9 146.1 46 146.1 46.1 146.2 46.2 146.2 46.4 146.3 46.5 146.3 46.6 146.4 46.7 146.4 46.8 146.4 46.9 146.5 47 146.5 47.2 146.5 47.3 146.5 47.4 146.5 47.5 146.6 47.6 146.6 47.7 146.6 47.9 146.6 48 146.6 48.1 146.6 48.2 146.6 48.3 146.6 48.5 146.5 48.6 146.5 48.7 146.5 48.8 146.5 48.9 146.5 49 146.4 49.2 146.4 49.3 146.4 49.4 146.3 49.5 146.3 49.6 146.2 49.7 146.2 49.8 146.1 49.9 146.1 50 146 50.1 146 50.2 145.9 50.3 145.9 50.4 145.8 50.5 145.7 50.6 145.6 50.7 145.6 50.8 145.5 50.9 145.4 51 145.3 51.1 145.3 51.2 145.2 51.2 145.1 51.3 145 51.4 144.9 51.5 144.8 51.5 144.7 51.6 144.6 51.7 144.5 51.7 144.4 51.8 144.3 51.8 144.2 51.9 144.1 52 144 52 143.9 52 143.8 52.1 143.7 52.1 143.5 52.2 143.4 52.2 143.3 52.2 143.2 52.3 143.1 52.3 143 52.3 142.9 52.3 142.7 52.3 142.6 52.3 142.5 52.3 142.4 52.4 142.3 52.4 142.1" vector-effect="none"/>
  <line class="cls-1" x1="76.9" y1="101.6" x2="76.9" y2="142.1" vector-effect="none"/>
  <line class="cls-1" x1="34.4" y1="38.6" x2="34.4" y2="146.6" vector-effect="none"/>
  <line class="cls-1" x1="169.4" y1="29.6" x2="43.4" y2="29.6" vector-effect="none"/>
  <line class="cls-1" x1="178.4" y1="38.6" x2="178.4" y2="146.6" vector-effect="none"/>
  <line class="cls-1" x1="76.9" y1="142.1" x2="133.4" y2="142.1" vector-effect="none"/>
  <line class="cls-1" x1="133.4" y1="101.6" x2="133.4" y2="142.1" vector-effect="none"/>
  <line class="cls-1" x1="76.9" y1="101.6" x2="133.4" y2="101.6" vector-effect="none"/>
  <line class="cls-1" x1="133.4" y1="43.1" x2="133.4" y2="83.6" vector-effect="none"/>
  <line class="cls-1" x1="76.9" y1="43.1" x2="133.4" y2="43.1" vector-effect="none"/>
  <line class="cls-1" x1="76.9" y1="43.1" x2="76.9" y2="83.6" vector-effect="none"/>
</svg>