<?xml version="1.0" encoding="UTF-8" standalone="no"?>
<svg width="279.4mm" height="215.9mm"
 viewBox="0 0 3300 2550"
 xmlns="http://www.w3.org/2000/svg" xmlns:xlink="http://www.w3.org/1999/xlink"  version="1.2" baseProfile="tiny">
<defs>
</defs>
<g fill="none" stroke="black" stroke-width="1" fill-rule="evenodd" stroke-linecap="square" stroke-linejoin="bevel" >

<g fill="#ffffff" fill-opacity="1" stroke="none" transform="matrix(1,0,0,1,0,0)"
font-family="Arial" font-size="12" font-weight="400" font-style="normal" 
>
<rect x="0" y="0" width="3300" height="2550"/>
</g>

<g fill="none" stroke="#000000" stroke-opacity="1" stroke-width="1" stroke-linecap="square" stroke-linejoin="bevel" transform="matrix(1,0,0,1,0,0)"
font-family="Arial" font-size="12" font-weight="400" font-style="normal" 
>
</g>

<g fill="#000000" fill-opacity="1" stroke="#000000" stroke-opacity="1" stroke-width="1" stroke-linecap="butt" stroke-linejoin="miter" stroke-miterlimit="2" transform="matrix(1,0,0,1,0,0)"
font-family="Arial" font-size="12" font-weight="400" font-style="normal" 
>
</g>

<g fill="#000000" fill-opacity="1" stroke="#000000" stroke-opacity="1" stroke-width="5" stroke-linecap="round" stroke-linejoin="bevel" transform="matrix(1,0,0,1,0,0)"
font-family="Arial" font-size="12" font-weight="400" font-style="normal" 
>
<polyline fill="none" vector-effect="none" points="737.779,711.807 738.7,711.796 739.619,711.762 740.538,711.705 741.455,711.626 742.37,711.525 743.282,711.401 744.19,711.255 745.095,711.086 745.996,710.896 746.891,710.683 747.781,710.449 748.665,710.192 749.542,709.914 750.413,709.615 751.275,709.294 752.13,708.952 752.976,708.59 753.813,708.207 754.64,707.803 755.457,707.379 756.263,706.935 757.058,706.472 757.842,705.989 758.613,705.487 759.372,704.966 760.118,704.427 760.85,703.87 761.569,703.295 762.273,702.702 762.963,702.093 763.637,701.466 764.296,700.823 764.939,700.165 765.565,699.49 766.175,698.801 766.767,698.097 767.342,697.378 767.9,696.646 768.439,695.9 768.959,695.141 769.461,694.369 769.944,693.586 770.408,692.791 770.851,691.984 771.275,691.167 771.679,690.34 772.062,689.503 772.425,688.658 772.767,687.803 773.087,686.94 773.387,686.07 773.665,685.193 773.921,684.309 774.155,683.419 774.368,682.523 774.559,681.623 774.727,680.718 774.873,679.809 774.997,678.897 775.099,677.983 775.178,677.066 775.234,676.147 775.268,675.227 775.279,674.307 " />
<polyline fill="none" vector-effect="none" points="175.279,674.307 175.291,675.227 175.324,676.147 175.381,677.066 175.46,677.983 175.561,678.897 175.685,679.809 175.831,680.718 176,681.623 176.19,682.523 176.403,683.419 176.638,684.309 176.894,685.193 177.172,686.07 177.471,686.94 177.792,687.803 178.134,688.658 178.496,689.503 178.88,690.34 179.283,691.167 179.707,691.984 180.151,692.791 180.614,693.586 181.097,694.369 181.599,695.141 182.12,695.9 182.659,696.646 183.216,697.378 183.791,698.097 184.384,698.801 184.994,699.49 185.62,700.165 186.263,700.823 186.922,701.466 187.596,702.093 188.285,702.702 188.99,703.295 189.708,703.87 190.441,704.427 191.186,704.966 191.945,705.487 192.717,705.989 193.5,706.472 194.296,706.935 195.102,707.379 195.919,707.803 196.746,708.207 197.583,708.59 198.429,708.952 199.283,709.294 200.146,709.615 201.016,709.914 201.894,710.192 202.778,710.449 203.668,710.683 204.563,710.896 205.463,711.086 206.368,711.255 207.277,711.401 208.189,711.525 209.104,711.626 210.021,711.705 210.939,711.762 211.859,711.796 212.779,711.807 " />
<polyline fill="none" vector-effect="none" points="212.779,186.807 211.859,186.818 210.939,186.852 210.021,186.909 209.104,186.988 208.189,187.089 207.277,187.213 206.368,187.359 205.463,187.527 204.563,187.718 203.668,187.931 202.778,188.165 201.894,188.422 201.016,188.7 200.146,188.999 199.283,189.32 198.429,189.661 197.583,190.024 196.746,190.407 195.919,190.811 195.102,191.235 194.296,191.679 193.5,192.142 192.717,192.625 191.945,193.127 191.186,193.648 190.441,194.187 189.708,194.744 188.99,195.319 188.285,195.912 187.596,196.521 186.922,197.148 186.263,197.79 185.62,198.449 184.994,199.123 184.384,199.813 183.791,200.517 183.216,201.236 182.659,201.968 182.12,202.714 181.599,203.473 181.097,204.245 180.614,205.028 180.151,205.823 179.707,206.63 179.283,207.447 178.88,208.274 178.496,209.11 178.134,209.956 177.792,210.811 177.471,211.674 177.172,212.544 176.894,213.421 176.638,214.305 176.403,215.195 176.19,216.091 176,216.991 175.831,217.896 175.685,218.805 175.561,219.717 175.46,220.631 175.381,221.548 175.324,222.467 175.291,223.387 175.279,224.307 " />
<polyline fill="none" vector-effect="none" points="775.279,224.307 775.268,223.387 775.234,222.467 775.178,221.548 775.099,220.631 774.997,219.717 774.873,218.805 774.727,217.896 774.559,216.991 774.368,216.091 774.155,215.195 773.921,214.305 773.665,213.421 773.387,212.544 773.087,211.674 772.767,210.811 772.425,209.956 772.062,209.11 771.679,208.274 771.275,207.447 770.851,206.63 770.408,205.823 769.944,205.028 769.461,204.245 768.959,203.473 768.439,202.714 767.9,201.968 767.342,201.236 766.767,200.517 766.175,199.813 765.565,199.123 764.939,198.449 764.296,197.79 763.637,197.148 762.963,196.521 762.273,195.912 761.569,195.319 760.85,194.744 760.118,194.187 759.372,193.648 758.613,193.127 757.842,192.625 757.058,192.142 756.263,191.679 755.457,191.235 754.64,190.811 753.813,190.407 752.976,190.024 752.13,189.661 751.275,189.32 750.413,188.999 749.542,188.7 748.665,188.422 747.781,188.165 746.891,187.931 745.996,187.718 745.095,187.527 744.19,187.359 743.282,187.213 742.37,187.089 741.455,186.988 740.538,186.909 739.619,186.852 738.7,186.818 737.779,186.807 " />
<polyline fill="none" vector-effect="none" points="644.029,449.307 643.978,445.166 643.826,441.027 643.572,436.893 643.217,432.767 642.76,428.65 642.203,424.546 641.545,420.457 640.787,416.385 639.929,412.334 638.972,408.304 637.917,404.299 636.763,400.321 635.512,396.373 634.165,392.457 632.722,388.575 631.184,384.729 629.552,380.922 627.827,377.157 626.011,373.435 624.104,369.759 622.106,366.13 620.021,362.552 617.848,359.026 615.59,355.554 613.247,352.139 610.821,348.783 608.313,345.487 605.725,342.253 603.058,339.084 600.315,335.981 597.496,332.947 594.604,329.983 591.639,327.09 588.605,324.271 585.502,321.528 582.333,318.861 579.1,316.273 575.804,313.766 572.447,311.34 569.032,308.996 565.56,306.738 562.034,304.565 558.456,302.48 554.828,300.483 551.151,298.575 547.429,296.759 543.664,295.034 539.857,293.402 536.012,291.864 532.129,290.421 528.213,289.074 524.265,287.823 520.287,286.67 516.282,285.614 512.253,284.657 508.201,283.799 504.129,283.041 500.04,282.383 495.936,281.826 491.82,281.37 487.693,281.014 483.559,280.76 479.421,280.608 475.279,280.557 471.138,280.608 466.999,280.76 462.865,281.014 458.739,281.37 454.623,281.826 450.519,282.383 446.429,283.041 442.358,283.799 438.306,284.657 434.276,285.614 430.272,286.67 426.294,287.823 422.346,289.074 418.429,290.421 414.547,291.864 410.701,293.402 406.895,295.034 403.129,296.759 399.407,298.575 395.731,300.483 392.103,302.48 388.524,304.565 384.998,306.738 381.527,308.996 378.112,311.34 374.755,313.766 371.459,316.273 368.225,318.861 365.056,321.528 361.954,324.271 358.919,327.09 355.955,329.983 353.063,332.947 350.244,335.981 347.5,339.084 344.834,342.253 342.246,345.487 339.738,348.783 337.312,352.139 334.969,355.554 332.71,359.026 330.538,362.552 328.452,366.13 326.455,369.759 324.548,373.435 322.731,377.157 321.006,380.922 319.375,384.729 317.837,388.575 316.394,392.457 315.046,396.373 313.796,400.321 312.642,404.299 311.587,408.304 310.63,412.334 309.772,416.385 309.014,420.457 308.356,424.546 307.798,428.65 307.342,432.767 306.987,436.893 306.733,441.027 306.58,445.166 306.529,449.307 306.58,453.448 306.733,457.587 306.987,461.721 307.342,465.847 307.798,469.964 308.356,474.068 309.014,478.157 309.772,482.228 310.63,486.28 311.587,490.31 312.642,494.315 313.796,498.292 315.046,502.241 316.394,506.157 317.837,510.039 319.375,513.885 321.006,517.691 322.731,521.457 324.548,525.179 326.455,528.855 328.452,532.484 330.538,536.062 332.71,539.588 334.969,543.059 337.312,546.475 339.738,549.831 342.246,553.127 344.834,556.361 347.5,559.53 350.244,562.633 353.063,565.667 355.955,568.631 358.919,571.524 361.954,574.342 365.056,577.086 368.225,579.752 371.459,582.34 374.755,584.848 378.112,587.274 381.527,589.617 384.998,591.876 388.524,594.049 392.103,596.134 395.731,598.131 399.407,600.039 403.129,601.855 406.895,603.58 410.701,605.212 414.547,606.749 418.429,608.193 422.346,609.54 426.294,610.791 430.272,611.944 434.276,613 438.306,613.957 442.358,614.814 446.429,615.573 450.519,616.23 454.623,616.788 458.739,617.244 462.865,617.6 466.999,617.854 471.138,618.006 475.279,618.057 479.421,618.006 483.559,617.854 487.693,617.6 491.82,617.244 495.936,616.788 500.04,616.23 504.129,615.573 508.201,614.814 512.253,613.957 516.282,613 520.287,611.944 524.265,610.791 528.213,609.54 532.129,608.193 536.012,606.749 539.857,605.212 543.664,603.58 547.429,601.855 551.151,600.039 554.828,598.131 558.456,596.134 562.034,594.049 565.56,591.876 569.032,589.617 572.447,587.274 575.804,584.848 579.1,582.34 582.333,579.752 585.502,577.086 588.605,574.342 591.639,571.524 594.604,568.631 597.496,565.667 600.315,562.633 603.058,559.53 605.725,556.361 608.313,553.127 610.821,549.831 613.247,546.475 615.59,543.059 617.848,539.588 620.021,536.062 622.106,532.484 624.104,528.855 626.011,525.179 627.827,521.457 629.552,517.691 631.184,513.885 632.722,510.039 634.165,506.157 635.512,502.241 636.763,498.292 637.917,494.315 638.972,490.31 639.929,486.28 640.787,482.228 641.545,478.157 642.203,474.068 642.76,469.964 643.217,465.847 643.572,461.721 643.826,457.587 643.978,453.448 644.029,449.307 " />
<polyline fill="none" vector-effect="none" points="737.779,711.807 212.779,711.807 " />
<polyline fill="none" vector-effect="none" points="748.557,243.057 748.548,242.332 748.521,241.608 748.477,240.885 748.415,240.163 748.335,239.442 748.237,238.724 748.122,238.009 747.989,237.296 747.839,236.587 747.672,235.882 747.487,235.182 747.285,234.486 747.067,233.795 746.831,233.109 746.578,232.43 746.309,231.757 746.024,231.091 745.722,230.432 745.404,229.781 745.07,229.138 744.721,228.503 744.356,227.877 743.976,227.26 743.581,226.652 743.171,226.055 742.746,225.467 742.307,224.891 741.854,224.325 741.388,223.77 740.908,223.227 740.415,222.696 739.908,222.178 739.39,221.672 738.859,221.178 738.316,220.698 737.761,220.232 737.196,219.779 736.619,219.34 736.032,218.916 735.434,218.506 734.826,218.11 734.21,217.73 733.583,217.365 732.948,217.016 732.305,216.682 731.654,216.364 730.995,216.063 730.329,215.777 729.656,215.508 728.977,215.255 728.292,215.02 727.601,214.801 726.905,214.599 726.204,214.414 725.499,214.247 724.79,214.097 724.077,213.964 723.362,213.849 722.644,213.751 721.924,213.672 721.201,213.609 720.478,213.565 719.754,213.538 719.029,213.529 718.305,213.538 717.58,213.565 716.857,213.609 716.135,213.672 715.415,213.751 714.697,213.849 713.981,213.964 713.269,214.097 712.56,214.247 711.855,214.414 711.154,214.599 710.458,214.801 709.767,215.02 709.082,215.255 708.402,215.508 707.73,215.777 707.064,216.063 706.405,216.364 705.753,216.682 705.11,217.016 704.475,217.365 703.849,217.73 703.232,218.11 702.625,218.506 702.027,218.916 701.44,219.34 700.863,219.779 700.297,220.232 699.743,220.698 699.2,221.178 698.669,221.672 698.15,222.178 697.644,222.696 697.151,223.227 696.671,223.77 696.204,224.325 695.751,224.891 695.313,225.467 694.888,226.055 694.478,226.652 694.083,227.26 693.703,227.877 693.338,228.503 692.988,229.138 692.655,229.781 692.337,230.432 692.035,231.091 691.749,231.757 691.48,232.43 691.228,233.109 690.992,233.795 690.773,234.486 690.571,235.182 690.387,235.882 690.219,236.587 690.069,237.296 689.936,238.009 689.821,238.724 689.724,239.442 689.644,240.163 689.582,240.885 689.537,241.608 689.511,242.332 689.502,243.057 689.511,243.782 689.537,244.506 689.582,245.229 689.644,245.951 689.724,246.671 689.821,247.39 689.936,248.105 690.069,248.817 690.219,249.526 690.387,250.232 690.571,250.932 690.773,251.628 690.992,252.319 691.228,253.004 691.48,253.684 691.749,254.357 692.035,255.023 692.337,255.682 692.655,256.333 692.988,256.976 693.338,257.611 693.703,258.237 694.083,258.854 694.478,259.462 694.888,260.059 695.313,260.646 695.751,261.223 696.204,261.789 696.671,262.344 697.151,262.886 697.644,263.417 698.15,263.936 698.669,264.442 699.2,264.935 699.743,265.415 700.297,265.882 700.863,266.335 701.44,266.774 702.027,267.198 702.625,267.608 703.232,268.003 703.849,268.384 704.475,268.748 705.11,269.098 705.753,269.432 706.405,269.75 707.064,270.051 707.73,270.337 708.402,270.606 709.082,270.858 709.767,271.094 710.458,271.313 711.154,271.515 711.855,271.7 712.56,271.867 713.269,272.017 713.981,272.15 714.697,272.265 715.415,272.362 716.135,272.442 716.857,272.504 717.58,272.549 718.305,272.576 719.029,272.585 719.754,272.576 720.478,272.549 721.201,272.504 721.924,272.442 722.644,272.362 723.362,272.265 724.077,272.15 724.79,272.017 725.499,271.867 726.204,271.7 726.905,271.515 727.601,271.313 728.292,271.094 728.977,270.858 729.656,270.606 730.329,270.337 730.995,270.051 731.654,269.75 732.305,269.432 732.948,269.098 733.583,268.748 734.21,268.384 734.826,268.003 735.434,267.608 736.032,267.198 736.619,266.774 737.196,266.335 737.761,265.882 738.316,265.415 738.859,264.935 739.39,264.442 739.908,263.936 740.415,263.417 740.908,262.886 741.388,262.344 741.854,261.789 742.307,261.223 742.746,260.646 743.171,260.059 743.581,259.462 743.976,258.854 744.356,258.237 744.721,257.611 745.07,256.976 745.404,256.333 745.722,255.682 746.024,255.023 746.309,254.357 746.578,253.684 746.831,253.004 747.067,252.319 747.285,251.628 747.487,250.932 747.672,250.232 747.839,249.526 747.989,248.817 748.122,248.105 748.237,247.39 748.335,246.671 748.415,245.951 748.477,245.229 748.521,244.506 748.548,243.782 748.557,243.057 " />
<polyline fill="none" vector-effect="none" points="261.057,655.557 261.048,654.832 261.021,654.108 260.977,653.385 260.915,652.663 260.835,651.942 260.737,651.224 260.622,650.509 260.489,649.796 260.339,649.087 260.172,648.382 259.987,647.682 259.785,646.986 259.567,646.295 259.331,645.609 259.078,644.93 258.809,644.257 258.524,643.591 258.222,642.932 257.904,642.281 257.57,641.638 257.221,641.003 256.856,640.377 256.476,639.76 256.081,639.152 255.671,638.555 255.246,637.967 254.807,637.391 254.354,636.825 253.888,636.27 253.408,635.727 252.915,635.196 252.408,634.678 251.89,634.172 251.359,633.678 250.816,633.198 250.261,632.732 249.696,632.279 249.119,631.84 248.532,631.416 247.934,631.006 247.326,630.61 246.71,630.23 246.083,629.865 245.448,629.516 244.805,629.182 244.154,628.864 243.495,628.563 242.829,628.277 242.156,628.008 241.477,627.755 240.792,627.52 240.101,627.301 239.405,627.099 238.704,626.914 237.999,626.747 237.29,626.597 236.577,626.464 235.862,626.349 235.144,626.251 234.424,626.172 233.701,626.109 232.978,626.065 232.254,626.038 231.529,626.029 230.805,626.038 230.08,626.065 229.357,626.109 228.635,626.172 227.915,626.251 227.197,626.349 226.481,626.464 225.769,626.597 225.06,626.747 224.355,626.914 223.654,627.099 222.958,627.301 222.267,627.52 221.582,627.755 220.902,628.008 220.23,628.277 219.564,628.563 218.905,628.864 218.253,629.182 217.61,629.516 216.975,629.865 216.349,630.23 215.732,630.61 215.125,631.006 214.527,631.416 213.94,631.84 213.363,632.279 212.797,632.732 212.243,633.198 211.7,633.678 211.169,634.172 210.65,634.678 210.144,635.196 209.651,635.727 209.171,636.27 208.704,636.825 208.251,637.391 207.813,637.967 207.388,638.555 206.978,639.152 206.583,639.76 206.203,640.377 205.838,641.003 205.488,641.638 205.155,642.281 204.837,642.932 204.535,643.591 204.249,644.257 203.98,644.93 203.728,645.609 203.492,646.295 203.273,646.986 203.071,647.682 202.887,648.382 202.719,649.087 202.569,649.796 202.436,650.509 202.321,651.224 202.224,651.942 202.144,652.663 202.082,653.385 202.037,654.108 202.011,654.832 202.002,655.557 202.011,656.282 202.037,657.006 202.082,657.729 202.144,658.451 202.224,659.171 202.321,659.89 202.436,660.605 202.569,661.317 202.719,662.026 202.887,662.732 203.071,663.432 203.273,664.128 203.492,664.819 203.728,665.504 203.98,666.184 204.249,666.857 204.535,667.523 204.837,668.182 205.155,668.833 205.488,669.476 205.838,670.111 206.203,670.737 206.583,671.354 206.978,671.962 207.388,672.559 207.813,673.146 208.251,673.723 208.704,674.289 209.171,674.844 209.651,675.386 210.144,675.917 210.65,676.436 211.169,676.942 211.7,677.435 212.243,677.915 212.797,678.382 213.363,678.835 213.94,679.274 214.527,679.698 215.125,680.108 215.732,680.503 216.349,680.884 216.975,681.248 217.61,681.598 218.253,681.932 218.905,682.25 219.564,682.551 220.23,682.837 220.902,683.106 221.582,683.358 222.267,683.594 222.958,683.813 223.654,684.015 224.355,684.2 225.06,684.367 225.769,684.517 226.481,684.65 227.197,684.765 227.915,684.862 228.635,684.942 229.357,685.004 230.08,685.049 230.805,685.076 231.529,685.085 232.254,685.076 232.978,685.049 233.701,685.004 234.424,684.942 235.144,684.862 235.862,684.765 236.577,684.65 237.29,684.517 237.999,684.367 238.704,684.2 239.405,684.015 240.101,683.813 240.792,683.594 241.477,683.358 242.156,683.106 242.829,682.837 243.495,682.551 244.154,682.25 244.805,681.932 245.448,681.598 246.083,681.248 246.71,680.884 247.326,680.503 247.934,680.108 248.532,679.698 249.119,679.274 249.696,678.835 250.261,678.382 250.816,677.915 251.359,677.435 251.89,676.942 252.408,676.436 252.915,675.917 253.408,675.386 253.888,674.844 254.354,674.289 254.807,673.723 255.246,673.146 255.671,672.559 256.081,671.962 256.476,671.354 256.856,670.737 257.221,670.111 257.57,669.476 257.904,668.833 258.222,668.182 258.524,667.523 258.809,666.857 259.078,666.184 259.331,665.504 259.567,664.819 259.785,664.128 259.987,663.432 260.172,662.732 260.339,662.026 260.489,661.317 260.622,660.605 260.737,659.89 260.835,659.171 260.915,658.451 260.977,657.729 261.021,657.006 261.048,656.282 261.057,655.557 " />
<polyline fill="none" vector-effect="none" points="175.279,224.307 175.279,674.307 " />
<polyline fill="none" vector-effect="none" points="737.779,186.807 212.779,186.807 " />
<polyline fill="none" vector-effect="none" points="775.279,224.307 775.279,674.307 " />
</g>

<g fill="none" stroke="#000000" stroke-opacity="1" stroke-width="1" stroke-linecap="square" stroke-linejoin="bevel" transform="matrix(1,0,0,1,0,0)"
font-family="Arial" font-size="12" font-weight="400" font-style="normal" 
>
</g>
</g>
</svg>
