<?xml version="1.0" encoding="UTF-8"?>
<svg id="Layer_1" data-name="Layer 1" xmlns="http://www.w3.org/2000/svg" version="1.1" viewBox="0 0 792 612">
  <defs>
    <style>
      .cls-1 {
        fill: none;
        stroke: #000;
        stroke-linecap: round;
        stroke-linejoin: bevel;
        stroke-width: 1.2px;
      }
    </style>
  </defs>
  <polyline class="cls-1" points="197.2 152.4 197.2 152.7 197.2 152.9 197.2 153.1 197.2 153.3 197.2 153.5 197.1 153.8 197.1 154 197.1 154.2 197 154.4 197 154.6 196.9 154.8 196.8 155 196.8 155.3 196.7 155.5 196.6 155.7 196.5 155.9 196.5 156.1 196.4 156.3 196.3 156.5 196.2 156.7 196.1 156.9 196 157.1 195.8 157.3 195.7 157.4 195.6 157.6 195.5 157.8 195.3 158 195.2 158.1 195 158.3 194.9 158.5 194.8 158.6 194.6 158.8 194.4 159 194.3 159.1 194.1 159.3 193.9 159.4 193.8 159.5 193.6 159.7 193.4 159.8 193.2 159.9 193 160 192.9 160.2 192.7 160.3 192.5 160.4 192.3 160.5 192.1 160.6 191.9 160.7 191.7 160.8 191.5 160.8 191.3 160.9 191.1 161 190.8 161 190.6 161.1 190.4 161.2 190.2 161.2 190 161.3 189.8 161.3 189.6 161.3 189.3 161.4 189.1 161.4 188.9 161.4 188.7 161.4 188.5 161.4 188.2 161.4" vector-effect="none"/>
  <polyline class="cls-1" points="188.2 80.4 188.5 80.4 188.7 80.4 188.9 80.4 189.1 80.4 189.3 80.5 189.6 80.5 189.8 80.5 190 80.6 190.2 80.6 190.4 80.7 190.6 80.7 190.8 80.8 191.1 80.9 191.3 80.9 191.5 81 191.7 81.1 191.9 81.2 192.1 81.3 192.3 81.4 192.5 81.5 192.7 81.6 192.9 81.7 193 81.8 193.2 81.9 193.4 82 193.6 82.2 193.8 82.3 193.9 82.4 194.1 82.6 194.3 82.7 194.4 82.9 194.6 83 194.8 83.2 194.9 83.4 195 83.5 195.2 83.7 195.3 83.9 195.5 84 195.6 84.2 195.7 84.4 195.8 84.6 196 84.8 196.1 85 196.2 85.2 196.3 85.4 196.4 85.6 196.5 85.8 196.5 86 196.6 86.2 196.7 86.4 196.8 86.6 196.8 86.8 196.9 87 197 87.2 197 87.4 197.1 87.6 197.1 87.9 197.1 88.1 197.2 88.3 197.2 88.5 197.2 88.7 197.2 89 197.2 89.2 197.2 89.4" vector-effect="none"/>
  <polyline class="cls-1" points="66.7 71.4 66.7 71.6 66.7 71.8 66.8 72.1 66.8 72.3 66.8 72.5 66.8 72.7 66.9 72.9 66.9 73.2 67 73.4 67 73.6 67.1 73.8 67.1 74 67.2 74.2 67.3 74.4 67.3 74.6 67.4 74.8 67.5 75 67.6 75.2 67.7 75.4 67.8 75.6 67.9 75.8 68 76 68.1 76.2 68.3 76.4 68.4 76.6 68.5 76.8 68.6 76.9 68.8 77.1 68.9 77.3 69.1 77.4 69.2 77.6 69.4 77.8 69.5 77.9 69.7 78.1 69.9 78.2 70 78.4 70.2 78.5 70.4 78.6 70.6 78.8 70.7 78.9 70.9 79 71.1 79.1 71.3 79.2 71.5 79.3 71.7 79.4 71.9 79.5 72.1 79.6 72.3 79.7 72.5 79.8 72.7 79.9 72.9 79.9 73.1 80 73.3 80.1 73.5 80.1 73.8 80.2 74 80.2 74.2 80.3 74.4 80.3 74.6 80.3 74.9 80.4 75.1 80.4 75.3 80.4 75.5 80.4 75.7 80.4" vector-effect="none"/>
  <polyline class="cls-1" points="75.7 57.9 75.5 57.9 75.3 57.9 75.1 58 74.9 58 74.6 58 74.4 58 74.2 58.1 74 58.1 73.8 58.2 73.5 58.2 73.3 58.3 73.1 58.3 72.9 58.4 72.7 58.5 72.5 58.5 72.3 58.6 72.1 58.7 71.9 58.8 71.7 58.9 71.5 59 71.3 59.1 71.1 59.2 70.9 59.3 70.7 59.5 70.6 59.6 70.4 59.7 70.2 59.8 70 60 69.9 60.1 69.7 60.3 69.5 60.4 69.4 60.6 69.2 60.7 69.1 60.9 68.9 61.1 68.8 61.2 68.6 61.4 68.5 61.6 68.4 61.8 68.3 61.9 68.1 62.1 68 62.3 67.9 62.5 67.8 62.7 67.7 62.9 67.6 63.1 67.5 63.3 67.4 63.5 67.3 63.7 67.3 63.9 67.2 64.1 67.1 64.3 67.1 64.5 67 64.7 67 65 66.9 65.2 66.9 65.4 66.8 65.6 66.8 65.8 66.8 66.1 66.8 66.3 66.7 66.5 66.7 66.7 66.7 66.9" vector-effect="none"/>
  <polyline class="cls-1" points="210.7 66.9 210.7 66.7 210.7 66.5 210.7 66.3 210.7 66.1 210.7 65.8 210.6 65.6 210.6 65.4 210.6 65.2 210.5 65 210.5 64.7 210.4 64.5 210.3 64.3 210.3 64.1 210.2 63.9 210.1 63.7 210 63.5 210 63.3 209.9 63.1 209.8 62.9 209.7 62.7 209.6 62.5 209.5 62.3 209.3 62.1 209.2 61.9 209.1 61.8 209 61.6 208.8 61.4 208.7 61.2 208.5 61.1 208.4 60.9 208.3 60.7 208.1 60.6 207.9 60.4 207.8 60.3 207.6 60.1 207.4 60 207.3 59.8 207.1 59.7 206.9 59.6 206.7 59.5 206.5 59.3 206.4 59.2 206.2 59.1 206 59 205.8 58.9 205.6 58.8 205.4 58.7 205.2 58.6 205 58.5 204.8 58.5 204.6 58.4 204.3 58.3 204.1 58.3 203.9 58.2 203.7 58.2 203.5 58.1 203.3 58.1 203.1 58 202.8 58 202.6 58 202.4 58 202.2 57.9 202 57.9 201.7 57.9" vector-effect="none"/>
  <polyline class="cls-1" points="201.7 183.9 202 183.9 202.2 183.9 202.4 183.9 202.6 183.9 202.8 183.9 203.1 183.8 203.3 183.8 203.5 183.8 203.7 183.7 203.9 183.7 204.1 183.6 204.3 183.5 204.6 183.5 204.8 183.4 205 183.3 205.2 183.3 205.4 183.2 205.6 183.1 205.8 183 206 182.9 206.2 182.8 206.4 182.7 206.5 182.5 206.7 182.4 206.9 182.3 207.1 182.2 207.3 182 207.4 181.9 207.6 181.8 207.8 181.6 207.9 181.5 208.1 181.3 208.3 181.1 208.4 181 208.5 180.8 208.7 180.6 208.8 180.5 209 180.3 209.1 180.1 209.2 179.9 209.3 179.8 209.5 179.6 209.6 179.4 209.7 179.2 209.8 179 209.9 178.8 210 178.6 210 178.4 210.1 178.2 210.2 178 210.3 177.8 210.3 177.5 210.4 177.3 210.5 177.1 210.5 176.9 210.6 176.7 210.6 176.5 210.6 176.3 210.7 176 210.7 175.8 210.7 175.6 210.7 175.4 210.7 175.2 210.7 174.9" vector-effect="none"/>
  <polyline class="cls-1" points="66.7 174.9 66.7 175.2 66.7 175.4 66.8 175.6 66.8 175.8 66.8 176 66.8 176.3 66.9 176.5 66.9 176.7 67 176.9 67 177.1 67.1 177.3 67.1 177.5 67.2 177.8 67.3 178 67.3 178.2 67.4 178.4 67.5 178.6 67.6 178.8 67.7 179 67.8 179.2 67.9 179.4 68 179.6 68.1 179.8 68.3 179.9 68.4 180.1 68.5 180.3 68.6 180.5 68.8 180.6 68.9 180.8 69.1 181 69.2 181.1 69.4 181.3 69.5 181.5 69.7 181.6 69.9 181.8 70 181.9 70.2 182 70.4 182.2 70.6 182.3 70.7 182.4 70.9 182.5 71.1 182.7 71.3 182.8 71.5 182.9 71.7 183 71.9 183.1 72.1 183.2 72.3 183.3 72.5 183.3 72.7 183.4 72.9 183.5 73.1 183.5 73.3 183.6 73.5 183.7 73.8 183.7 74 183.8 74.2 183.8 74.4 183.8 74.6 183.9 74.9 183.9 75.1 183.9 75.3 183.9 75.5 183.9 75.7 183.9" vector-effect="none"/>
  <polyline class="cls-1" points="75.7 161.4 75.5 161.4 75.3 161.4 75.1 161.5 74.9 161.5 74.6 161.5 74.4 161.5 74.2 161.6 74 161.6 73.8 161.7 73.5 161.7 73.3 161.8 73.1 161.8 72.9 161.9 72.7 162 72.5 162 72.3 162.1 72.1 162.2 71.9 162.3 71.7 162.4 71.5 162.5 71.3 162.6 71.1 162.7 70.9 162.8 70.7 163 70.6 163.1 70.4 163.2 70.2 163.3 70 163.5 69.9 163.6 69.7 163.8 69.5 163.9 69.4 164.1 69.2 164.2 69.1 164.4 68.9 164.6 68.8 164.7 68.6 164.9 68.5 165.1 68.4 165.3 68.3 165.4 68.1 165.6 68 165.8 67.9 166 67.8 166.2 67.7 166.4 67.6 166.6 67.5 166.8 67.4 167 67.3 167.2 67.3 167.4 67.2 167.6 67.1 167.8 67.1 168 67 168.2 67 168.5 66.9 168.7 66.9 168.9 66.8 169.1 66.8 169.3 66.8 169.6 66.8 169.8 66.7 170 66.7 170.2 66.7 170.4" vector-effect="none"/>
  <line class="cls-1" x1="201.7" y1="183.9" x2="75.7" y2="183.9" vector-effect="none"/>
  <polyline class="cls-1" points="84.7 170.4 84.7 170.3 84.7 170.2 84.7 170.1 84.7 170 84.7 169.8 84.7 169.7 84.7 169.6 84.6 169.5 84.6 169.4 84.6 169.3 84.5 169.1 84.5 169 84.5 168.9 84.4 168.8 84.4 168.7 84.3 168.6 84.3 168.5 84.2 168.4 84.2 168.3 84.1 168.2 84 168 84 167.9 83.9 167.8 83.8 167.8 83.8 167.7 83.7 167.6 83.6 167.5 83.5 167.4 83.5 167.3 83.4 167.2 83.3 167.1 83.2 167 83.1 167 83 166.9 82.9 166.8 82.8 166.8 82.7 166.7 82.6 166.6 82.5 166.6 82.4 166.5 82.3 166.4 82.2 166.4 82.1 166.3 82 166.3 81.9 166.2 81.8 166.2 81.6 166.2 81.5 166.1 81.4 166.1 81.3 166.1 81.2 166 81.1 166 80.9 166 80.8 166 80.7 166 80.6 165.9 80.5 165.9 80.4 165.9 80.2 165.9 80.1 165.9 80 165.9 79.9 165.9 79.8 166 79.6 166 79.5 166 79.4 166 79.3 166 79.2 166.1 79 166.1 78.9 166.1 78.8 166.2 78.7 166.2 78.6 166.2 78.5 166.3 78.4 166.3 78.3 166.4 78.2 166.4 78.1 166.5 77.9 166.6 77.8 166.6 77.7 166.7 77.6 166.8 77.6 166.8 77.5 166.9 77.4 167 77.3 167 77.2 167.1 77.1 167.2 77 167.3 76.9 167.4 76.8 167.5 76.8 167.6 76.7 167.7 76.6 167.8 76.6 167.8 76.5 167.9 76.4 168 76.4 168.2 76.3 168.3 76.2 168.4 76.2 168.5 76.1 168.6 76.1 168.7 76 168.8 76 168.9 76 169 75.9 169.1 75.9 169.3 75.9 169.4 75.8 169.5 75.8 169.6 75.8 169.7 75.8 169.8 75.8 170 75.7 170.1 75.7 170.2 75.7 170.3 75.7 170.4 75.7 170.6 75.7 170.7 75.7 170.8 75.8 170.9 75.8 171 75.8 171.2 75.8 171.3 75.8 171.4 75.9 171.5 75.9 171.6 75.9 171.7 76 171.8 76 172 76 172.1 76.1 172.2 76.1 172.3 76.2 172.4 76.2 172.5 76.3 172.6 76.4 172.7 76.4 172.8 76.5 172.9 76.6 173 76.6 173.1 76.7 173.2 76.8 173.3 76.8 173.4 76.9 173.5 77 173.6 77.1 173.7 77.2 173.7 77.3 173.8 77.4 173.9 77.5 174 77.6 174 77.6 174.1 77.7 174.2 77.8 174.3 77.9 174.3 78.1 174.4 78.2 174.4 78.3 174.5 78.4 174.5 78.5 174.6 78.6 174.6 78.7 174.7 78.8 174.7 78.9 174.7 79 174.8 79.2 174.8 79.3 174.8 79.4 174.9 79.5 174.9 79.6 174.9 79.8 174.9 79.9 174.9 80 174.9 80.1 174.9 80.2 174.9 80.4 174.9 80.5 174.9 80.6 174.9 80.7 174.9 80.8 174.9 80.9 174.9 81.1 174.9 81.2 174.8 81.3 174.8 81.4 174.8 81.5 174.7 81.6 174.7 81.8 174.7 81.9 174.6 82 174.6 82.1 174.5 82.2 174.5 82.3 174.4 82.4 174.4 82.5 174.3 82.6 174.3 82.7 174.2 82.8 174.1 82.9 174 83 174 83.1 173.9 83.2 173.8 83.3 173.7 83.4 173.7 83.5 173.6 83.5 173.5 83.6 173.4 83.7 173.3 83.8 173.2 83.8 173.1 83.9 173 84 172.9 84 172.8 84.1 172.7 84.2 172.6 84.2 172.5 84.3 172.4 84.3 172.3 84.4 172.2 84.4 172.1 84.5 172 84.5 171.8 84.5 171.7 84.6 171.6 84.6 171.5 84.6 171.4 84.7 171.3 84.7 171.2 84.7 171 84.7 170.9 84.7 170.8 84.7 170.7 84.7 170.6 84.7 170.4" vector-effect="none"/>
  <polyline class="cls-1" points="201.7 71.4 201.7 71.3 201.7 71.2 201.7 71.1 201.7 71 201.7 70.8 201.7 70.7 201.7 70.6 201.6 70.5 201.6 70.4 201.6 70.3 201.5 70.1 201.5 70 201.5 69.9 201.4 69.8 201.4 69.7 201.3 69.6 201.3 69.5 201.2 69.4 201.2 69.3 201.1 69.2 201 69 201 68.9 200.9 68.8 200.8 68.8 200.8 68.7 200.7 68.6 200.6 68.5 200.5 68.4 200.5 68.3 200.4 68.2 200.3 68.1 200.2 68 200.1 68 200 67.9 199.9 67.8 199.8 67.8 199.7 67.7 199.6 67.6 199.5 67.6 199.4 67.5 199.3 67.4 199.2 67.4 199.1 67.3 199 67.3 198.9 67.2 198.8 67.2 198.6 67.2 198.5 67.1 198.4 67.1 198.3 67.1 198.2 67 198.1 67 197.9 67 197.8 67 197.7 67 197.6 66.9 197.5 66.9 197.4 66.9 197.2 66.9 197.1 66.9 197 66.9 196.9 66.9 196.8 67 196.6 67 196.5 67 196.4 67 196.3 67 196.2 67.1 196 67.1 195.9 67.1 195.8 67.2 195.7 67.2 195.6 67.2 195.5 67.3 195.4 67.3 195.3 67.4 195.2 67.4 195.1 67.5 194.9 67.6 194.8 67.6 194.7 67.7 194.6 67.8 194.6 67.8 194.5 67.9 194.4 68 194.3 68 194.2 68.1 194.1 68.2 194 68.3 193.9 68.4 193.8 68.5 193.8 68.6 193.7 68.7 193.6 68.8 193.6 68.8 193.5 68.9 193.4 69 193.4 69.2 193.3 69.3 193.2 69.4 193.2 69.5 193.1 69.6 193.1 69.7 193 69.8 193 69.9 193 70 192.9 70.1 192.9 70.3 192.9 70.4 192.8 70.5 192.8 70.6 192.8 70.7 192.8 70.8 192.8 71 192.7 71.1 192.7 71.2 192.7 71.3 192.7 71.4 192.7 71.6 192.7 71.7 192.7 71.8 192.8 71.9 192.8 72 192.8 72.2 192.8 72.3 192.8 72.4 192.9 72.5 192.9 72.6 192.9 72.7 193 72.8 193 73 193 73.1 193.1 73.2 193.1 73.3 193.2 73.4 193.2 73.5 193.3 73.6 193.4 73.7 193.4 73.8 193.5 73.9 193.6 74 193.6 74.1 193.7 74.2 193.8 74.3 193.8 74.4 193.9 74.5 194 74.6 194.1 74.7 194.2 74.7 194.3 74.8 194.4 74.9 194.5 75 194.6 75 194.6 75.1 194.7 75.2 194.8 75.3 194.9 75.3 195.1 75.4 195.2 75.4 195.3 75.5 195.4 75.5 195.5 75.6 195.6 75.6 195.7 75.7 195.8 75.7 195.9 75.7 196 75.8 196.2 75.8 196.3 75.8 196.4 75.9 196.5 75.9 196.6 75.9 196.8 75.9 196.9 75.9 197 75.9 197.1 75.9 197.2 75.9 197.4 75.9 197.5 75.9 197.6 75.9 197.7 75.9 197.8 75.9 197.9 75.9 198.1 75.9 198.2 75.8 198.3 75.8 198.4 75.8 198.5 75.7 198.6 75.7 198.8 75.7 198.9 75.6 199 75.6 199.1 75.5 199.2 75.5 199.3 75.4 199.4 75.4 199.5 75.3 199.6 75.3 199.7 75.2 199.8 75.1 199.9 75 200 75 200.1 74.9 200.2 74.8 200.3 74.7 200.4 74.7 200.5 74.6 200.5 74.5 200.6 74.4 200.7 74.3 200.8 74.2 200.8 74.1 200.9 74 201 73.9 201 73.8 201.1 73.7 201.2 73.6 201.2 73.5 201.3 73.4 201.3 73.3 201.4 73.2 201.4 73.1 201.5 73 201.5 72.8 201.5 72.7 201.6 72.6 201.6 72.5 201.6 72.4 201.7 72.3 201.7 72.2 201.7 72 201.7 71.9 201.7 71.8 201.7 71.7 201.7 71.6 201.7 71.4" vector-effect="none"/>
  <line class="cls-1" x1="66.7" y1="170.4" x2="66.7" y2="174.9" vector-effect="none"/>
  <line class="cls-1" x1="188.2" y1="161.4" x2="75.7" y2="161.4" vector-effect="none"/>
  <line class="cls-1" x1="197.2" y1="89.4" x2="197.2" y2="152.4" vector-effect="none"/>
  <line class="cls-1" x1="188.2" y1="80.4" x2="75.7" y2="80.4" vector-effect="none"/>
  <line class="cls-1" x1="66.7" y1="66.9" x2="66.7" y2="71.4" vector-effect="none"/>
  <line class="cls-1" x1="201.7" y1="57.9" x2="75.7" y2="57.9" vector-effect="none"/>
  <line class="cls-1" x1="210.7" y1="66.9" x2="210.7" y2="174.9" vector-effect="none"/>
</svg>